<mxfile host="app.diagrams.net" agent="Mozilla/5.0 (Windows NT 10.0; Win64; x64) AppleWebKit/537.36 (KHTML, like Gecko) Chrome/138.0.0.0 Safari/537.36 Edg/138.0.0.0" version="27.2.0">
  <diagram name="Página-1" id="UEyyG7AcJ_uKX2njWbbl">
    <mxGraphModel dx="2003" dy="1824" grid="1" gridSize="10" guides="1" tooltips="1" connect="1" arrows="1" fold="1" page="1" pageScale="1" pageWidth="827" pageHeight="1169" math="0" shadow="0">
      <root>
        <mxCell id="0" />
        <mxCell id="1" parent="0" />
        <mxCell id="n6hWfuZ6NKM1XhDLZBeC-1" value="Ciudadano (user)" style="rounded=0;whiteSpace=wrap;html=1;" vertex="1" parent="1">
          <mxGeometry x="30" y="200" width="120" height="60" as="geometry" />
        </mxCell>
        <mxCell id="n6hWfuZ6NKM1XhDLZBeC-2" value="Preguntas" style="rounded=0;whiteSpace=wrap;html=1;" vertex="1" parent="1">
          <mxGeometry x="390" y="200" width="120" height="60" as="geometry" />
        </mxCell>
        <mxCell id="n6hWfuZ6NKM1XhDLZBeC-3" value="" style="endArrow=none;html=1;rounded=0;entryX=0;entryY=0.5;entryDx=0;entryDy=0;" edge="1" parent="1" source="n6hWfuZ6NKM1XhDLZBeC-1" target="n6hWfuZ6NKM1XhDLZBeC-18">
          <mxGeometry width="50" height="50" relative="1" as="geometry">
            <mxPoint x="700" y="440" as="sourcePoint" />
            <mxPoint x="220" y="220" as="targetPoint" />
          </mxGeometry>
        </mxCell>
        <mxCell id="n6hWfuZ6NKM1XhDLZBeC-5" value="Gobierno" style="rounded=0;whiteSpace=wrap;html=1;" vertex="1" parent="1">
          <mxGeometry x="40" y="530" width="120" height="60" as="geometry" />
        </mxCell>
        <mxCell id="n6hWfuZ6NKM1XhDLZBeC-6" value="Ministerio" style="rounded=0;whiteSpace=wrap;html=1;" vertex="1" parent="1">
          <mxGeometry x="320" y="530" width="120" height="60" as="geometry" />
        </mxCell>
        <mxCell id="n6hWfuZ6NKM1XhDLZBeC-10" value="Datos del ine" style="whiteSpace=wrap;html=1;" vertex="1" parent="1">
          <mxGeometry x="590" y="525" width="120" height="60" as="geometry" />
        </mxCell>
        <mxCell id="n6hWfuZ6NKM1XhDLZBeC-11" value="Periodicos" style="whiteSpace=wrap;html=1;" vertex="1" parent="1">
          <mxGeometry x="40" y="730" width="120" height="60" as="geometry" />
        </mxCell>
        <mxCell id="n6hWfuZ6NKM1XhDLZBeC-12" value="Hechos / Noticias" style="whiteSpace=wrap;html=1;" vertex="1" parent="1">
          <mxGeometry x="600" y="730" width="120" height="60" as="geometry" />
        </mxCell>
        <mxCell id="n6hWfuZ6NKM1XhDLZBeC-13" value="Publicaciones" style="whiteSpace=wrap;html=1;" vertex="1" parent="1">
          <mxGeometry x="320" y="730" width="120" height="60" as="geometry" />
        </mxCell>
        <mxCell id="n6hWfuZ6NKM1XhDLZBeC-16" value="" style="endArrow=none;html=1;rounded=0;" edge="1" parent="1" source="n6hWfuZ6NKM1XhDLZBeC-13" target="n6hWfuZ6NKM1XhDLZBeC-22">
          <mxGeometry width="50" height="50" relative="1" as="geometry">
            <mxPoint x="670" y="620" as="sourcePoint" />
            <mxPoint x="540" y="760" as="targetPoint" />
          </mxGeometry>
        </mxCell>
        <mxCell id="n6hWfuZ6NKM1XhDLZBeC-18" value="Responde" style="rhombus;whiteSpace=wrap;html=1;" vertex="1" parent="1">
          <mxGeometry x="230" y="190" width="80" height="80" as="geometry" />
        </mxCell>
        <mxCell id="n6hWfuZ6NKM1XhDLZBeC-20" value="" style="endArrow=none;html=1;rounded=0;" edge="1" parent="1" source="n6hWfuZ6NKM1XhDLZBeC-18" target="n6hWfuZ6NKM1XhDLZBeC-2">
          <mxGeometry width="50" height="50" relative="1" as="geometry">
            <mxPoint x="740" y="440" as="sourcePoint" />
            <mxPoint x="790" y="390" as="targetPoint" />
          </mxGeometry>
        </mxCell>
        <mxCell id="n6hWfuZ6NKM1XhDLZBeC-21" value="Hacen" style="rhombus;whiteSpace=wrap;html=1;" vertex="1" parent="1">
          <mxGeometry x="200" y="720" width="80" height="80" as="geometry" />
        </mxCell>
        <mxCell id="n6hWfuZ6NKM1XhDLZBeC-22" value="Cuentan" style="rhombus;whiteSpace=wrap;html=1;" vertex="1" parent="1">
          <mxGeometry x="480" y="720" width="80" height="80" as="geometry" />
        </mxCell>
        <mxCell id="n6hWfuZ6NKM1XhDLZBeC-24" value="" style="endArrow=none;html=1;rounded=0;" edge="1" parent="1" source="n6hWfuZ6NKM1XhDLZBeC-21" target="n6hWfuZ6NKM1XhDLZBeC-13">
          <mxGeometry width="50" height="50" relative="1" as="geometry">
            <mxPoint x="670" y="620" as="sourcePoint" />
            <mxPoint x="720" y="570" as="targetPoint" />
          </mxGeometry>
        </mxCell>
        <mxCell id="n6hWfuZ6NKM1XhDLZBeC-25" value="" style="endArrow=none;html=1;rounded=0;" edge="1" parent="1" source="n6hWfuZ6NKM1XhDLZBeC-11" target="n6hWfuZ6NKM1XhDLZBeC-21">
          <mxGeometry width="50" height="50" relative="1" as="geometry">
            <mxPoint x="670" y="620" as="sourcePoint" />
            <mxPoint x="720" y="570" as="targetPoint" />
          </mxGeometry>
        </mxCell>
        <mxCell id="n6hWfuZ6NKM1XhDLZBeC-26" value="" style="endArrow=none;html=1;rounded=0;" edge="1" parent="1" source="n6hWfuZ6NKM1XhDLZBeC-22" target="n6hWfuZ6NKM1XhDLZBeC-12">
          <mxGeometry width="50" height="50" relative="1" as="geometry">
            <mxPoint x="669" y="688" as="sourcePoint" />
            <mxPoint x="719" y="638" as="targetPoint" />
          </mxGeometry>
        </mxCell>
        <mxCell id="n6hWfuZ6NKM1XhDLZBeC-28" value="" style="rhombus;whiteSpace=wrap;html=1;" vertex="1" parent="1">
          <mxGeometry x="200" y="520" width="80" height="80" as="geometry" />
        </mxCell>
        <mxCell id="n6hWfuZ6NKM1XhDLZBeC-29" value="" style="endArrow=none;html=1;rounded=0;" edge="1" parent="1" source="n6hWfuZ6NKM1XhDLZBeC-28" target="n6hWfuZ6NKM1XhDLZBeC-6">
          <mxGeometry width="50" height="50" relative="1" as="geometry">
            <mxPoint x="390" y="620" as="sourcePoint" />
            <mxPoint x="350" y="560" as="targetPoint" />
          </mxGeometry>
        </mxCell>
        <mxCell id="n6hWfuZ6NKM1XhDLZBeC-30" value="" style="endArrow=none;html=1;rounded=0;" edge="1" parent="1" source="n6hWfuZ6NKM1XhDLZBeC-5" target="n6hWfuZ6NKM1XhDLZBeC-28">
          <mxGeometry width="50" height="50" relative="1" as="geometry">
            <mxPoint x="390" y="620" as="sourcePoint" />
            <mxPoint x="440" y="570" as="targetPoint" />
          </mxGeometry>
        </mxCell>
        <mxCell id="n6hWfuZ6NKM1XhDLZBeC-32" value="0, N" style="text;html=1;align=center;verticalAlign=middle;resizable=0;points=[];autosize=1;strokeColor=none;fillColor=none;" vertex="1" parent="1">
          <mxGeometry x="345" y="200" width="50" height="30" as="geometry" />
        </mxCell>
        <mxCell id="n6hWfuZ6NKM1XhDLZBeC-33" value="0, N" style="text;html=1;align=center;verticalAlign=middle;resizable=0;points=[];autosize=1;strokeColor=none;fillColor=none;" vertex="1" parent="1">
          <mxGeometry x="150" y="200" width="50" height="30" as="geometry" />
        </mxCell>
        <mxCell id="n6hWfuZ6NKM1XhDLZBeC-35" value="Teléfono" style="ellipse;whiteSpace=wrap;html=1;" vertex="1" parent="1">
          <mxGeometry x="-180" y="190" width="120" height="80" as="geometry" />
        </mxCell>
        <mxCell id="n6hWfuZ6NKM1XhDLZBeC-36" value="Contraseña" style="ellipse;whiteSpace=wrap;html=1;" vertex="1" parent="1">
          <mxGeometry x="-180" y="100" width="120" height="80" as="geometry" />
        </mxCell>
        <mxCell id="n6hWfuZ6NKM1XhDLZBeC-37" value="Correo" style="ellipse;whiteSpace=wrap;html=1;" vertex="1" parent="1">
          <mxGeometry x="-180" width="120" height="80" as="geometry" />
        </mxCell>
        <mxCell id="n6hWfuZ6NKM1XhDLZBeC-39" value="" style="endArrow=none;html=1;rounded=0;" edge="1" parent="1" source="n6hWfuZ6NKM1XhDLZBeC-35" target="n6hWfuZ6NKM1XhDLZBeC-1">
          <mxGeometry width="50" height="50" relative="1" as="geometry">
            <mxPoint x="80" y="240" as="sourcePoint" />
            <mxPoint x="-264.28571428571445" y="200" as="targetPoint" />
          </mxGeometry>
        </mxCell>
        <mxCell id="n6hWfuZ6NKM1XhDLZBeC-40" value="" style="endArrow=none;html=1;rounded=0;" edge="1" parent="1" source="n6hWfuZ6NKM1XhDLZBeC-1" target="n6hWfuZ6NKM1XhDLZBeC-37">
          <mxGeometry width="50" height="50" relative="1" as="geometry">
            <mxPoint x="80" y="240" as="sourcePoint" />
            <mxPoint x="130" y="190" as="targetPoint" />
          </mxGeometry>
        </mxCell>
        <mxCell id="n6hWfuZ6NKM1XhDLZBeC-41" value="" style="endArrow=none;html=1;rounded=0;" edge="1" parent="1" source="n6hWfuZ6NKM1XhDLZBeC-36" target="n6hWfuZ6NKM1XhDLZBeC-1">
          <mxGeometry width="50" height="50" relative="1" as="geometry">
            <mxPoint x="80" y="240" as="sourcePoint" />
            <mxPoint x="130" y="190" as="targetPoint" />
          </mxGeometry>
        </mxCell>
        <mxCell id="n6hWfuZ6NKM1XhDLZBeC-44" value="Valoración 0-4" style="ellipse;whiteSpace=wrap;html=1;" vertex="1" parent="1">
          <mxGeometry x="210" y="320" width="120" height="80" as="geometry" />
        </mxCell>
        <mxCell id="n6hWfuZ6NKM1XhDLZBeC-45" value="" style="endArrow=none;html=1;rounded=0;" edge="1" parent="1" source="n6hWfuZ6NKM1XhDLZBeC-44" target="n6hWfuZ6NKM1XhDLZBeC-18">
          <mxGeometry width="50" height="50" relative="1" as="geometry">
            <mxPoint x="90" y="270" as="sourcePoint" />
            <mxPoint x="140" y="220" as="targetPoint" />
          </mxGeometry>
        </mxCell>
        <mxCell id="n6hWfuZ6NKM1XhDLZBeC-46" value="Texto" style="ellipse;whiteSpace=wrap;html=1;" vertex="1" parent="1">
          <mxGeometry x="550" y="60" width="120" height="80" as="geometry" />
        </mxCell>
        <mxCell id="n6hWfuZ6NKM1XhDLZBeC-47" value="" style="endArrow=none;html=1;rounded=0;" edge="1" parent="1" source="n6hWfuZ6NKM1XhDLZBeC-2" target="n6hWfuZ6NKM1XhDLZBeC-46">
          <mxGeometry width="50" height="50" relative="1" as="geometry">
            <mxPoint x="90" y="270" as="sourcePoint" />
            <mxPoint x="140" y="220" as="targetPoint" />
          </mxGeometry>
        </mxCell>
        <mxCell id="n6hWfuZ6NKM1XhDLZBeC-61" value="Revisa" style="rhombus;whiteSpace=wrap;html=1;" vertex="1" parent="1">
          <mxGeometry x="230" y="40" width="80" height="80" as="geometry" />
        </mxCell>
        <mxCell id="n6hWfuZ6NKM1XhDLZBeC-62" value="" style="endArrow=none;html=1;rounded=0;entryX=0;entryY=0.5;entryDx=0;entryDy=0;" edge="1" parent="1" source="n6hWfuZ6NKM1XhDLZBeC-1" target="n6hWfuZ6NKM1XhDLZBeC-61">
          <mxGeometry width="50" height="50" relative="1" as="geometry">
            <mxPoint x="350" y="130" as="sourcePoint" />
            <mxPoint x="400" y="80" as="targetPoint" />
            <Array as="points">
              <mxPoint x="90" y="80" />
            </Array>
          </mxGeometry>
        </mxCell>
        <mxCell id="n6hWfuZ6NKM1XhDLZBeC-63" value="" style="endArrow=none;html=1;rounded=0;" edge="1" parent="1" source="n6hWfuZ6NKM1XhDLZBeC-2" target="n6hWfuZ6NKM1XhDLZBeC-61">
          <mxGeometry width="50" height="50" relative="1" as="geometry">
            <mxPoint x="350" y="130" as="sourcePoint" />
            <mxPoint x="400" y="80" as="targetPoint" />
            <Array as="points">
              <mxPoint x="450" y="80" />
            </Array>
          </mxGeometry>
        </mxCell>
        <mxCell id="n6hWfuZ6NKM1XhDLZBeC-64" value="0, N" style="text;html=1;align=center;verticalAlign=middle;resizable=0;points=[];autosize=1;strokeColor=none;fillColor=none;" vertex="1" parent="1">
          <mxGeometry x="400" y="170" width="50" height="30" as="geometry" />
        </mxCell>
        <mxCell id="n6hWfuZ6NKM1XhDLZBeC-65" value="0, N" style="text;html=1;align=center;verticalAlign=middle;resizable=0;points=[];autosize=1;strokeColor=none;fillColor=none;" vertex="1" parent="1">
          <mxGeometry x="90" y="170" width="50" height="30" as="geometry" />
        </mxCell>
        <mxCell id="n6hWfuZ6NKM1XhDLZBeC-66" value="N : N" style="text;html=1;align=center;verticalAlign=middle;resizable=0;points=[];autosize=1;strokeColor=none;fillColor=none;" vertex="1" parent="1">
          <mxGeometry x="245" y="10" width="50" height="30" as="geometry" />
        </mxCell>
        <mxCell id="n6hWfuZ6NKM1XhDLZBeC-67" value="N : N" style="text;html=1;align=center;verticalAlign=middle;resizable=0;points=[];autosize=1;strokeColor=none;fillColor=none;" vertex="1" parent="1">
          <mxGeometry x="245" y="160" width="50" height="30" as="geometry" />
        </mxCell>
        <mxCell id="n6hWfuZ6NKM1XhDLZBeC-68" value="Motivo" style="ellipse;whiteSpace=wrap;html=1;" vertex="1" parent="1">
          <mxGeometry x="80" y="-70" width="120" height="80" as="geometry" />
        </mxCell>
        <mxCell id="n6hWfuZ6NKM1XhDLZBeC-69" value="" style="endArrow=none;html=1;rounded=0;" edge="1" parent="1" source="n6hWfuZ6NKM1XhDLZBeC-68" target="n6hWfuZ6NKM1XhDLZBeC-61">
          <mxGeometry width="50" height="50" relative="1" as="geometry">
            <mxPoint x="350" y="130" as="sourcePoint" />
            <mxPoint x="400" y="80" as="targetPoint" />
          </mxGeometry>
        </mxCell>
      </root>
    </mxGraphModel>
  </diagram>
</mxfile>
